<svg width="155" height="155" viewBox="0 0 155 155" fill="none" xmlns="http://www.w3.org/2000/svg">
<path d="M131.536 58.5905C131.426 58.4505 120.766 44.5605 113.436 36.9705C106.446 29.7305 97.216 29.9205 91.6961 30.0305C91.076 30.0405 90.506 30.0505 89.986 30.0505C89.236 30.0505 88.6261 30.7105 88.6261 31.5205C88.6261 36.4005 83.606 40.3605 77.426 40.3605C71.246 40.3605 66.2261 36.3905 66.2261 31.5205C66.2261 30.7005 65.6161 30.0505 64.8661 30.0505C64.3461 30.0505 63.766 30.0405 63.156 30.0305C57.636 29.9205 48.4061 29.7305 41.4161 36.9705C34.0961 44.5605 23.4261 58.4505 23.3161 58.5905C23.0661 58.9205 22.9561 59.3505 23.0161 59.7705C23.0761 60.1905 23.3061 60.5605 23.6461 60.7905L47.5561 76.7005V121.45C47.5561 123.08 48.7761 124.4 50.2661 124.4H104.576C106.076 124.4 107.296 123.08 107.296 121.45V76.7005L131.196 60.7905C131.536 60.5705 131.766 60.1905 131.826 59.7705C131.886 59.3505 131.786 58.9205 131.526 58.5905H131.536ZM107.296 73.2405V47.7405H104.576V121.45H50.2661V47.7405H47.5561V73.2405L26.4161 59.1705C29.2361 55.5405 37.3861 45.2205 43.2861 39.1005C49.4661 32.6905 57.676 32.8605 63.106 32.9705C63.276 32.9705 63.4561 32.9705 63.6161 32.9805C64.466 38.8005 70.336 43.3105 77.426 43.3105C84.516 43.3105 90.386 38.7905 91.236 32.9805C91.406 32.9805 91.576 32.9805 91.746 32.9705C97.176 32.8605 105.376 32.6905 111.556 39.1005C117.456 45.2205 125.606 55.5505 128.426 59.1705L107.286 73.2405H107.296Z" fill="#9747FF"/>
<path d="M74.15 78.99H76.94C78.17 78.99 78.64 78.3 78.64 76.71V75.4C78.64 73.41 78.13 72.64 76.86 72.64C75.59 72.64 75.08 73.37 75.08 75.14V76.19H70V75.61C70 70.61 72.32 68 76.85 68H77.14C81.49 68 83.99 70.18 83.99 75.76V76.63C83.99 80.47 82.07 82.25 79.64 82.54V85.51H74.13V78.98L74.15 78.99ZM73.93 87H79.88V93.16H73.93V87Z" fill="#9747FF"/>
<rect x="0.5" y="0.5" width="154" height="154" rx="13.5" stroke="#DEDCDF"/>
</svg>
